{"title":"Gethu 2016 Movies DVDScr XviD AAC Clean Audio New +Sample ☻rDX☻","uid":13232884,"size":739593490,"categoryP":"video","categoryS":"movies","magnet":"?xt=urn:btih:ec224465b4ed0a352030c49d3631f73a92271c20&amp;dn=Gethu+2016+Movies+DVDScr+XviD+AAC+Clean+Audio+New+%2BSample+%E2%98%BBrDX%E2%98%BB&amp;tr=udp%3A%2F%2Ftracker.leechers-paradise.org%3A6969&amp;tr=udp%3A%2F%2Fzer0day.ch%3A1337&amp;tr=udp%3A%2F%2Fopen.demonii.com%3A1337&amp;tr=udp%3A%2F%2Ftracker.coppersurfer.tk%3A6969&amp;tr=udp%3A%2F%2Fexodus.desync.com%3A6969","seeders":0,"leechers":2,"uploader":"basicssom","files":2,"time":1452967923,"description":"----------------------------------------------------------------\r\nGethu 2016 Tamil Movies DVDScr XviD AAC Clean Audio New Source with Sample ~ ☻rDX☻\r\n\r\nSCREEN SHOTS &amp; POSTER:\r\n  \nhttp://doctorhosts.com/2016/1/Gethu/11.html  \nhttp://doctorhosts.com/2016/1/Gethu/1.html  \nhttp://doctorhosts.com/2016/1/Gethu/2.html  \nhttp://doctorhosts.com/2016/1/Gethu/3.html  \nhttp://doctorhosts.com/2016/1/Gethu/4.html  \nhttp://doctorhosts.com/2016/1/Gethu/5.html  \nhttp://doctorhosts.com/2016/1/Gethu/6.html  \nhttp://doctorhosts.com/2016/1/Gethu/7.html  \nhttp://doctorhosts.com/2016/1/Gethu/8.html  \nhttp://doctorhosts.com/2016/1/Gethu/9.html  \nhttp://doctorhosts.com/2016/1/Gethu/10.html\r\n\r\nFormat                                   : Matroska\r\nFormat version                           : Version 4 / Version 2\r\nFile size                                : 699 MiB\r\nDuration                                 : 1h 54mn\r\nOverall bit rate                         : 855 Kbps\r\nMovie name                               : Gethu 2016 Tamil Movies DVDScr XviD AAC Clean Audio New Source ~ ☻rDX☻\r\n\r\nVideo\r\nID                                       : 1\r\nFormat                                   : AVC\r\nFormat/Info                              : Advanced Video Codec\r\nFormat profile                           :   \r\nFormat settings, CABAC                   : Yes\r\nFormat settings, ReFrames                : 4 frames\r\nCodec ID                                 : V_MPEG4/ISO/AVC\r\nDuration                                 : 1h 54mn\r\nBit rate                                 : 757 Kbps\r\nWidth                                    : 608 pixels\r\nHeight                                   : 256 pixels\r\nDisplay aspect ratio                     : 2.40:1\r\nFrame rate mode                          : Constant\r\nFrame rate                               : 25.000 fps\r\nColor space                              : YUV\r\nChroma subsampling                       : 4:2:0\r\nBit depth                                : 8 bits\r\nScan type                                : Progressive\r\nBits/(Pixel*Frame)                       : 0.195\r\nStream size                              : 607 MiB (87%)\r\nTitle                                    : ☻rDX☻\r\nWriting library                          : XviD\r\nLanguage                                 : Tamil\r\nDefault                                  : Yes\r\nForced                                   : Yes\r\n\r\nAudio\r\nID                                       : 2\r\nFormat                                   : MPEG Audio\r\nFormat version                           : Version 1\r\nFormat profile                           : Layer 3\r\nMode                                     : Joint stereo\r\nMode extension                           : MS Stereo\r\nCodec ID                                 : A_MPEG/L3\r\nCodec ID/Hint                            : MP3\r\nDuration                                 : 1h 54mn\r\nBit rate mode                            : Constant\r\nBit rate                                 : 96.0 Kbps\r\nChannel(s)                               : 2 channels\r\nSampling rate                            : 48.0 KHz\r\nCompression mode                         : Lossy\r\nStream size                              : 78.5 MiB (11%)\r\nTitle                                    : ☻rDX☻\r\nLanguage                                 : Tamil\r\nDefault                                  : Yes\r\nForced                                   : Yes\r\n\r\nIMDB                                      \nhttp://www.imdb.com/title/tt5332522/","torrent":{"xt":"urn:btih:ec224465b4ed0a352030c49d3631f73a92271c20","amp;dn":"Gethu+2016+Movies+DVDScr+XviD+AAC+Clean+Audio+New+%2BSample+%E2%98%BBrDX%E2%98%BB","amp;tr":["udp%3A%2F%2Ftracker.leechers-paradise.org%3A6969","udp%3A%2F%2Fzer0day.ch%3A1337","udp%3A%2F%2Fopen.demonii.com%3A1337","udp%3A%2F%2Ftracker.coppersurfer.tk%3A6969","udp%3A%2F%2Fexodus.desync.com%3A6969"],"infoHash":"ec224465b4ed0a352030c49d3631f73a92271c20","infoHashBuffer":{"type":"Buffer","data":[236,34,68,101,180,237,10,53,32,48,196,157,54,49,247,58,146,39,28,32]},"announce":[],"urlList":[]}}